<mxfile host="Electron" modified="2023-11-20T21:07:09.166Z" agent="Mozilla/5.0 (Windows NT 10.0; Win64; x64) AppleWebKit/537.36 (KHTML, like Gecko) draw.io/21.6.8 Chrome/114.0.5735.289 Electron/25.5.0 Safari/537.36" etag="E8W5KLdwP61v29M-gqpq" version="21.6.8" type="device">
  <diagram name="Página-1" id="XR4ebHps2N25Qvcpz3L0">
    <mxGraphModel dx="1091" dy="689" grid="1" gridSize="10" guides="1" tooltips="1" connect="1" arrows="1" fold="1" page="1" pageScale="1" pageWidth="827" pageHeight="1169" math="0" shadow="0">
      <root>
        <mxCell id="0" />
        <mxCell id="1" parent="0" />
        <mxCell id="41HEvBep1YAE45Kj1m3O-1" value="" style="shape=ellipse;html=1;dashed=0;whiteSpace=wrap;perimeter=ellipsePerimeter;verticalAlign=top;fontSize=15;" vertex="1" parent="1">
          <mxGeometry x="140" y="170" width="570" height="390" as="geometry" />
        </mxCell>
        <mxCell id="41HEvBep1YAE45Kj1m3O-8" style="edgeStyle=orthogonalEdgeStyle;rounded=0;orthogonalLoop=1;jettySize=auto;html=1;exitX=0.5;exitY=1;exitDx=0;exitDy=0;entryX=0.5;entryY=0;entryDx=0;entryDy=0;" edge="1" parent="1" source="41HEvBep1YAE45Kj1m3O-4" target="41HEvBep1YAE45Kj1m3O-6">
          <mxGeometry relative="1" as="geometry" />
        </mxCell>
        <mxCell id="41HEvBep1YAE45Kj1m3O-4" value="Tasks" style="html=1;dashed=0;whiteSpace=wrap;shape=partialRectangle;right=0;" vertex="1" parent="1">
          <mxGeometry x="200" y="60" width="100" height="30" as="geometry" />
        </mxCell>
        <mxCell id="41HEvBep1YAE45Kj1m3O-39" style="edgeStyle=orthogonalEdgeStyle;rounded=0;orthogonalLoop=1;jettySize=auto;html=1;exitX=0.5;exitY=1;exitDx=0;exitDy=0;entryX=0;entryY=0;entryDx=0;entryDy=0;" edge="1" parent="1" source="41HEvBep1YAE45Kj1m3O-5" target="41HEvBep1YAE45Kj1m3O-6">
          <mxGeometry relative="1" as="geometry">
            <Array as="points">
              <mxPoint x="100" y="180" />
              <mxPoint x="190" y="180" />
              <mxPoint x="190" y="250" />
              <mxPoint x="277" y="250" />
            </Array>
          </mxGeometry>
        </mxCell>
        <mxCell id="41HEvBep1YAE45Kj1m3O-5" value="Tags" style="html=1;dashed=0;whiteSpace=wrap;shape=partialRectangle;right=0;" vertex="1" parent="1">
          <mxGeometry x="50" y="60" width="100" height="30" as="geometry" />
        </mxCell>
        <mxCell id="41HEvBep1YAE45Kj1m3O-11" value="" style="edgeStyle=orthogonalEdgeStyle;rounded=0;orthogonalLoop=1;jettySize=auto;html=1;entryX=0;entryY=0;entryDx=0;entryDy=0;exitX=0;exitY=1;exitDx=0;exitDy=0;" edge="1" parent="1" source="41HEvBep1YAE45Kj1m3O-6" target="41HEvBep1YAE45Kj1m3O-10">
          <mxGeometry relative="1" as="geometry" />
        </mxCell>
        <mxCell id="41HEvBep1YAE45Kj1m3O-14" value="Tag(s) (Opcional)" style="edgeLabel;html=1;align=center;verticalAlign=middle;resizable=0;points=[];" vertex="1" connectable="0" parent="41HEvBep1YAE45Kj1m3O-11">
          <mxGeometry x="0.029" relative="1" as="geometry">
            <mxPoint x="-27" as="offset" />
          </mxGeometry>
        </mxCell>
        <mxCell id="41HEvBep1YAE45Kj1m3O-13" style="edgeStyle=orthogonalEdgeStyle;rounded=0;orthogonalLoop=1;jettySize=auto;html=1;exitX=1;exitY=1;exitDx=0;exitDy=0;entryX=1;entryY=0;entryDx=0;entryDy=0;" edge="1" parent="1" source="41HEvBep1YAE45Kj1m3O-6" target="41HEvBep1YAE45Kj1m3O-10">
          <mxGeometry relative="1" as="geometry" />
        </mxCell>
        <mxCell id="41HEvBep1YAE45Kj1m3O-15" value="codTask + Título + Data Entrega&lt;br style=&quot;font-size: 13px;&quot;&gt;&lt;span style=&quot;font-size: 13px;&quot;&gt;e Dados Opcionais&lt;/span&gt;" style="edgeLabel;html=1;align=center;verticalAlign=middle;resizable=0;points=[];" vertex="1" connectable="0" parent="41HEvBep1YAE45Kj1m3O-13">
          <mxGeometry x="-0.0369" y="1" relative="1" as="geometry">
            <mxPoint x="16" as="offset" />
          </mxGeometry>
        </mxCell>
        <mxCell id="41HEvBep1YAE45Kj1m3O-6" value="Consultar Task e Tag(s)" style="shape=ellipse;html=1;dashed=0;whiteSpace=wrap;perimeter=ellipsePerimeter;" vertex="1" parent="1">
          <mxGeometry x="260" y="300" width="120" height="50" as="geometry" />
        </mxCell>
        <mxCell id="41HEvBep1YAE45Kj1m3O-17" value="" style="edgeStyle=orthogonalEdgeStyle;rounded=0;orthogonalLoop=1;jettySize=auto;html=1;exitX=0.5;exitY=1;exitDx=0;exitDy=0;entryX=0.5;entryY=1;entryDx=0;entryDy=0;" edge="1" parent="1" source="41HEvBep1YAE45Kj1m3O-10" target="41HEvBep1YAE45Kj1m3O-16">
          <mxGeometry relative="1" as="geometry" />
        </mxCell>
        <mxCell id="41HEvBep1YAE45Kj1m3O-18" value="Dados Relacionados" style="edgeLabel;html=1;align=center;verticalAlign=middle;resizable=0;points=[];" vertex="1" connectable="0" parent="41HEvBep1YAE45Kj1m3O-17">
          <mxGeometry x="-0.0198" y="-1" relative="1" as="geometry">
            <mxPoint as="offset" />
          </mxGeometry>
        </mxCell>
        <mxCell id="41HEvBep1YAE45Kj1m3O-10" value="Relacionar Task com Tag(s)" style="shape=ellipse;html=1;dashed=0;whiteSpace=wrap;perimeter=ellipsePerimeter;" vertex="1" parent="1">
          <mxGeometry x="240" y="420" width="120" height="50" as="geometry" />
        </mxCell>
        <mxCell id="41HEvBep1YAE45Kj1m3O-20" value="" style="edgeStyle=orthogonalEdgeStyle;rounded=0;orthogonalLoop=1;jettySize=auto;html=1;" edge="1" parent="1" source="41HEvBep1YAE45Kj1m3O-16" target="41HEvBep1YAE45Kj1m3O-19">
          <mxGeometry relative="1" as="geometry" />
        </mxCell>
        <mxCell id="41HEvBep1YAE45Kj1m3O-21" value="Task" style="edgeLabel;html=1;align=center;verticalAlign=middle;resizable=0;points=[];" vertex="1" connectable="0" parent="41HEvBep1YAE45Kj1m3O-20">
          <mxGeometry x="0.0009" y="1" relative="1" as="geometry">
            <mxPoint as="offset" />
          </mxGeometry>
        </mxCell>
        <mxCell id="41HEvBep1YAE45Kj1m3O-16" value="Gerar exibição" style="shape=ellipse;html=1;dashed=0;whiteSpace=wrap;perimeter=ellipsePerimeter;" vertex="1" parent="1">
          <mxGeometry x="510" y="420" width="120" height="50" as="geometry" />
        </mxCell>
        <mxCell id="41HEvBep1YAE45Kj1m3O-24" style="edgeStyle=orthogonalEdgeStyle;rounded=0;orthogonalLoop=1;jettySize=auto;html=1;exitX=0.5;exitY=0;exitDx=0;exitDy=0;entryX=0.5;entryY=1;entryDx=0;entryDy=0;" edge="1" parent="1" source="41HEvBep1YAE45Kj1m3O-19" target="41HEvBep1YAE45Kj1m3O-22">
          <mxGeometry relative="1" as="geometry" />
        </mxCell>
        <mxCell id="41HEvBep1YAE45Kj1m3O-26" value="Task" style="edgeLabel;html=1;align=center;verticalAlign=middle;resizable=0;points=[];" vertex="1" connectable="0" parent="41HEvBep1YAE45Kj1m3O-24">
          <mxGeometry x="0.015" y="3" relative="1" as="geometry">
            <mxPoint as="offset" />
          </mxGeometry>
        </mxCell>
        <mxCell id="41HEvBep1YAE45Kj1m3O-19" value="Apresentar &lt;br&gt;exibição" style="shape=ellipse;html=1;dashed=0;whiteSpace=wrap;perimeter=ellipsePerimeter;" vertex="1" parent="1">
          <mxGeometry x="510" y="310" width="120" height="50" as="geometry" />
        </mxCell>
        <mxCell id="41HEvBep1YAE45Kj1m3O-22" value="Usuário" style="html=1;dashed=0;whiteSpace=wrap;" vertex="1" parent="1">
          <mxGeometry x="700" y="210" width="100" height="50" as="geometry" />
        </mxCell>
        <mxCell id="41HEvBep1YAE45Kj1m3O-28" value="2. Exibição de Tasks" style="text;html=1;strokeColor=none;fillColor=none;align=center;verticalAlign=middle;whiteSpace=wrap;rounded=0;fontSize=15;" vertex="1" parent="1">
          <mxGeometry x="346.25" y="190" width="163.75" height="30" as="geometry" />
        </mxCell>
        <mxCell id="41HEvBep1YAE45Kj1m3O-35" value="codTask + Título + Data Entrega&lt;br style=&quot;font-size: 13px;&quot;&gt;&lt;span style=&quot;font-size: 13px;&quot;&gt;e Dados Opcionais&lt;/span&gt;" style="edgeLabel;html=1;align=center;verticalAlign=middle;resizable=0;points=[];" vertex="1" connectable="0" parent="1">
          <mxGeometry x="260.0014982375677" y="129.99814841165002" as="geometry" />
        </mxCell>
        <mxCell id="41HEvBep1YAE45Kj1m3O-36" value="Tag(s) (Opcional)" style="edgeLabel;html=1;align=center;verticalAlign=middle;resizable=0;points=[];" vertex="1" connectable="0" parent="1">
          <mxGeometry x="99.99850176243226" y="129.99604314849233" as="geometry" />
        </mxCell>
        <mxCell id="41HEvBep1YAE45Kj1m3O-40" style="edgeStyle=orthogonalEdgeStyle;rounded=0;orthogonalLoop=1;jettySize=auto;html=1;exitX=0.5;exitY=1;exitDx=0;exitDy=0;entryX=0;entryY=0.5;entryDx=0;entryDy=0;" edge="1" parent="1" source="41HEvBep1YAE45Kj1m3O-46" target="41HEvBep1YAE45Kj1m3O-6">
          <mxGeometry relative="1" as="geometry">
            <mxPoint x="250" y="345" as="targetPoint" />
          </mxGeometry>
        </mxCell>
        <mxCell id="41HEvBep1YAE45Kj1m3O-41" value="Título&amp;nbsp;" style="edgeLabel;html=1;align=center;verticalAlign=middle;resizable=0;points=[];" vertex="1" connectable="0" parent="41HEvBep1YAE45Kj1m3O-40">
          <mxGeometry x="-0.1416" y="-1" relative="1" as="geometry">
            <mxPoint x="-96" y="-26" as="offset" />
          </mxGeometry>
        </mxCell>
        <mxCell id="41HEvBep1YAE45Kj1m3O-47" value="Tag(s)" style="edgeLabel;html=1;align=center;verticalAlign=middle;resizable=0;points=[];" vertex="1" connectable="0" parent="41HEvBep1YAE45Kj1m3O-40">
          <mxGeometry x="-0.8414" y="-2" relative="1" as="geometry">
            <mxPoint y="1" as="offset" />
          </mxGeometry>
        </mxCell>
        <mxCell id="41HEvBep1YAE45Kj1m3O-42" style="edgeStyle=orthogonalEdgeStyle;rounded=0;orthogonalLoop=1;jettySize=auto;html=1;exitX=0.25;exitY=1;exitDx=0;exitDy=0;entryX=0;entryY=0.5;entryDx=0;entryDy=0;" edge="1" parent="1" source="41HEvBep1YAE45Kj1m3O-46" target="41HEvBep1YAE45Kj1m3O-6">
          <mxGeometry relative="1" as="geometry">
            <mxPoint x="250" y="345" as="targetPoint" />
            <Array as="points">
              <mxPoint x="30" y="280" />
              <mxPoint x="30" y="325" />
            </Array>
          </mxGeometry>
        </mxCell>
        <mxCell id="41HEvBep1YAE45Kj1m3O-44" style="edgeStyle=orthogonalEdgeStyle;rounded=0;orthogonalLoop=1;jettySize=auto;html=1;exitX=0.75;exitY=1;exitDx=0;exitDy=0;entryX=0;entryY=0.5;entryDx=0;entryDy=0;" edge="1" parent="1" source="41HEvBep1YAE45Kj1m3O-46" target="41HEvBep1YAE45Kj1m3O-6">
          <mxGeometry relative="1" as="geometry">
            <mxPoint x="250" y="345" as="targetPoint" />
            <Array as="points">
              <mxPoint x="110" y="280" />
              <mxPoint x="110" y="325" />
            </Array>
          </mxGeometry>
        </mxCell>
        <mxCell id="41HEvBep1YAE45Kj1m3O-45" value="Data" style="edgeLabel;html=1;align=center;verticalAlign=middle;resizable=0;points=[];" vertex="1" connectable="0" parent="41HEvBep1YAE45Kj1m3O-44">
          <mxGeometry x="-0.7455" y="1" relative="1" as="geometry">
            <mxPoint x="-1" y="8" as="offset" />
          </mxGeometry>
        </mxCell>
        <mxCell id="41HEvBep1YAE45Kj1m3O-46" value="Usuário" style="html=1;dashed=0;whiteSpace=wrap;" vertex="1" parent="1">
          <mxGeometry x="20" y="230" width="100" height="50" as="geometry" />
        </mxCell>
      </root>
    </mxGraphModel>
  </diagram>
</mxfile>
